<svg xmlns="http://www.w3.org/2000/svg" xmlns:xlink="http://www.w3.org/1999/xlink" width="500" zoomAndPan="magnify" viewBox="0 0 375 374.999991" height="500" preserveAspectRatio="xMidYMid meet" version="1.0"><defs><clipPath id="id1"><path d="M 3.542969 7 L 314 7 L 314 368 L 3.542969 368 Z M 3.542969 7 " clip-rule="nonzero"/></clipPath><clipPath id="id2"><path d="M 46 0 L 371.792969 0 L 371.792969 375 L 46 375 Z M 46 0 " clip-rule="nonzero"/></clipPath></defs><g clip-path="url(#id1)"><path fill="#920000" d="M 3.761719 7.96875 L 313.328125 189.882812 L 3.761719 367.242188 L 74.550781 187.605469 L 3.761719 7.96875 " fill-opacity="1" fill-rule="nonzero"/></g><g clip-path="url(#id2)"><path fill="#ffffff" d="M 50.183594 14.789062 C 71.601562 27.375 93.015625 39.960938 114.433594 52.546875 C 157.867188 78.070312 201.304688 103.59375 244.734375 129.117188 C 278.960938 149.226562 313.179688 169.335938 347.394531 189.4375 C 351.515625 191.855469 355.632812 194.28125 359.753906 196.699219 L 359.753906 183.058594 C 338.105469 195.457031 316.46875 207.851562 294.828125 220.253906 C 251.097656 245.308594 207.371094 270.363281 163.640625 295.417969 C 129.605469 314.921875 95.566406 334.414062 61.53125 353.917969 C 57.75 356.082031 53.964844 358.253906 50.183594 360.417969 C 54.054688 363.398438 57.925781 366.367188 61.796875 369.34375 C 75.183594 335.371094 88.570312 301.40625 101.957031 267.441406 C 110.09375 246.785156 118.226562 226.136719 126.371094 205.480469 C 128.292969 200.59375 130.222656 195.710938 132.140625 190.828125 C 133.453125 187.496094 132.355469 184.921875 131.152344 181.878906 C 115.347656 141.785156 99.554688 101.683594 83.757812 61.59375 C 76.4375 43.019531 69.117188 24.441406 61.796875 5.867188 C 60.21875 1.867188 56.5625 -0.882812 52.074219 0.351562 C 48.25 1.402344 44.96875 6.058594 46.550781 10.066406 C 59.9375 44.035156 73.320312 78 86.707031 111.964844 C 96.914062 137.878906 107.128906 163.789062 117.335938 189.695312 L 117.335938 185.503906 C 103.949219 219.46875 90.5625 253.433594 77.179688 287.40625 C 66.972656 313.316406 56.761719 339.222656 46.550781 365.140625 C 43.882812 371.910156 52.632812 377.222656 58.164062 374.058594 C 79.804688 361.664062 101.441406 349.261719 123.082031 336.859375 C 166.8125 311.804688 210.546875 286.757812 254.277344 261.703125 C 288.3125 242.199219 322.347656 222.699219 356.378906 203.195312 C 360.164062 201.03125 363.945312 198.867188 367.730469 196.695312 C 372.902344 193.734375 372.816406 186.039062 367.730469 183.054688 C 346.3125 170.472656 324.894531 157.886719 303.476562 145.296875 C 260.039062 119.777344 216.613281 94.253906 173.175781 68.730469 C 138.957031 48.621094 104.730469 28.515625 70.511719 8.402344 C 66.398438 5.984375 62.28125 3.5625 58.164062 1.144531 C 49.355469 -4.03125 41.402344 9.625 50.183594 14.785156 " fill-opacity="1" fill-rule="nonzero"/></g></svg>