<svg width="18" height="28" viewBox="0 0 18 28" fill="none" xmlns="http://www.w3.org/2000/svg">
<path d="M14.0829 1H3.69832C2.42381 1 1.39062 2.01223 1.39062 3.26087V24.7391C1.39062 25.9878 2.42381 27 3.69832 27H14.0829C15.3574 27 16.3906 25.9878 16.3906 24.7391V3.26087C16.3906 2.01223 15.3574 1 14.0829 1Z" stroke="#4A3AFF" stroke-width="1.6" stroke-linecap="round" stroke-linejoin="round"/>
<path d="M12.6704 1V2.48123C12.6704 2.87408 12.5111 3.25083 12.2275 3.52862C11.944 3.8064 11.5594 3.96246 11.1585 3.96246H6.62275C6.22176 3.96246 5.8372 3.8064 5.55367 3.52862C5.27013 3.25083 5.11084 2.87408 5.11084 2.48123V1" stroke="#4A3AFF" stroke-width="1.6" stroke-linecap="round" stroke-linejoin="round"/>
</svg>
