<svg width="17" height="30" viewBox="0 0 17 30" fill="none" xmlns="http://www.w3.org/2000/svg">
<path d="M15.5 29V6.07209C15.4999 5.82639 15.4228 5.58692 15.2796 5.38757C15.1364 5.18822 14.9343 5.03906 14.702 4.9612L3.03534 1.06057C2.85991 1.0016 2.67301 0.985385 2.4901 1.01326C2.30719 1.04113 2.13352 1.1123 1.98347 1.22087C1.83343 1.32943 1.71132 1.47228 1.62724 1.63758C1.54317 1.80289 1.49955 1.9859 1.5 2.17147V29" stroke="#4A3AFF" stroke-width="1.6" stroke-linecap="round" stroke-linejoin="round"/>
<path d="M10.8318 21.6108V22.781" stroke="#4A3AFF" stroke-width="1.6" stroke-linecap="round" stroke-linejoin="round"/>
<path d="M10.8318 15.7598V16.93" stroke="#4A3AFF" stroke-width="1.6" stroke-linecap="round" stroke-linejoin="round"/>
<path d="M10.8318 9.90918V11.0794" stroke="#4A3AFF" stroke-width="1.6" stroke-linecap="round" stroke-linejoin="round"/>
<path d="M6.16772 21.6108V22.781" stroke="#4A3AFF" stroke-width="1.6" stroke-linecap="round" stroke-linejoin="round"/>
<path d="M6.16772 15.7598V16.93" stroke="#4A3AFF" stroke-width="1.6" stroke-linecap="round" stroke-linejoin="round"/>
<path d="M6.16772 9.90918V11.0794" stroke="#4A3AFF" stroke-width="1.6" stroke-linecap="round" stroke-linejoin="round"/>
</svg>
