<svg xmlns="http://www.w3.org/2000/svg" xmlns:xlink="http://www.w3.org/1999/xlink" width="500" zoomAndPan="magnify" viewBox="0 0 375 374.999991" height="500" preserveAspectRatio="xMidYMid meet" version="1.0"><defs><clipPath id="id1"><path d="M 61 7 L 371.453125 7 L 371.453125 368 L 61 368 Z M 61 7 " clip-rule="nonzero"/></clipPath><clipPath id="id2"><path d="M 3.203125 0 L 329 0 L 329 375 L 3.203125 375 Z M 3.203125 0 " clip-rule="nonzero"/></clipPath></defs><g clip-path="url(#id1)"><path fill="#920000" d="M 371.234375 367.03125 L 61.667969 185.117188 L 371.234375 7.757812 L 300.445312 187.394531 L 371.234375 367.03125 " fill-opacity="1" fill-rule="nonzero"/></g><g clip-path="url(#id2)"><path fill="#ffffff" d="M 324.8125 360.210938 C 303.394531 347.625 281.980469 335.039062 260.5625 322.453125 C 217.125 296.929688 173.691406 271.40625 130.261719 245.882812 C 96.035156 225.773438 61.816406 205.664062 27.597656 185.5625 C 23.480469 183.144531 19.359375 180.71875 15.242188 178.300781 L 15.242188 191.941406 C 36.890625 179.542969 58.527344 167.148438 80.167969 154.746094 C 123.894531 129.691406 167.625 104.636719 211.355469 79.582031 C 245.390625 60.078125 279.425781 40.585938 313.464844 21.082031 C 317.246094 18.917969 321.027344 16.746094 324.8125 14.582031 C 320.941406 11.601562 317.070312 8.632812 313.199219 5.65625 C 299.8125 39.628906 286.425781 73.59375 273.039062 107.558594 C 264.902344 128.214844 256.769531 148.863281 248.625 169.519531 C 246.703125 174.40625 244.773438 179.289062 242.851562 184.171875 C 241.539062 187.503906 242.640625 190.078125 243.839844 193.121094 C 259.644531 233.214844 275.441406 273.316406 291.238281 313.40625 C 298.558594 331.980469 305.878906 350.558594 313.199219 369.132812 C 314.777344 373.132812 318.433594 375.882812 322.921875 374.648438 C 326.746094 373.597656 330.027344 368.941406 328.445312 364.933594 C 315.058594 330.964844 301.675781 297 288.289062 263.035156 C 278.082031 237.121094 267.867188 211.210938 257.660156 185.304688 L 257.660156 189.496094 C 271.046875 155.53125 284.429688 121.566406 297.8125 87.59375 C 308.023438 61.683594 318.234375 35.777344 328.445312 9.859375 C 331.113281 3.089844 322.363281 -2.222656 316.832031 0.941406 C 295.191406 13.335938 273.550781 25.738281 251.914062 38.140625 C 208.183594 63.195312 164.445312 88.242188 120.71875 113.296875 C 86.683594 132.800781 52.644531 152.300781 18.617188 171.804688 C 14.832031 173.96875 11.050781 176.132812 7.265625 178.304688 C 2.09375 181.265625 2.179688 188.960938 7.265625 191.945312 C 28.683594 204.527344 50.101562 217.113281 71.519531 229.703125 C 114.953125 255.222656 158.382812 280.746094 201.820312 306.269531 C 236.039062 326.378906 270.261719 346.484375 304.480469 366.597656 C 308.597656 369.015625 312.714844 371.4375 316.832031 373.855469 C 325.640625 379.03125 333.59375 365.375 324.8125 360.214844 " fill-opacity="1" fill-rule="nonzero"/></g></svg>